<svg width="1440" height="1024" viewBox="0 0 1440 1024" fill="none" xmlns="http://www.w3.org/2000/svg">
<rect width="1440" height="1024" fill="white"/>
<line x1="487.5" y1="80" x2="487.5" y2="1024" stroke="#B6B6B6" stroke-opacity="0.5"/>
<circle cx="75" cy="236" r="12" fill="#98B6C3" fill-opacity="0.5"/>
<rect x="100" y="232" width="193" height="8" rx="4" fill="#98B6C2" fill-opacity="0.5"/>
<circle cx="76" cy="292" r="12" fill="#98B6C3" fill-opacity="0.5"/>
<rect x="101" y="288" width="193" height="8" rx="4" fill="#98B6C2" fill-opacity="0.5"/>
<path d="M65.1136 186V168.545H71.0114C72.3807 168.545 73.5 168.793 74.3693 169.287C75.2443 169.776 75.892 170.438 76.3125 171.273C76.733 172.108 76.9432 173.04 76.9432 174.068C76.9432 175.097 76.733 176.031 76.3125 176.872C75.8977 177.713 75.2557 178.384 74.3864 178.884C73.517 179.378 72.4034 179.625 71.0455 179.625H66.8182V177.75H70.9773C71.9148 177.75 72.6676 177.588 73.2358 177.264C73.804 176.94 74.2159 176.503 74.4716 175.952C74.733 175.395 74.8636 174.767 74.8636 174.068C74.8636 173.369 74.733 172.744 74.4716 172.193C74.2159 171.642 73.8011 171.21 73.2273 170.898C72.6534 170.58 71.892 170.42 70.9432 170.42H67.2273V186H65.1136ZM83.9276 186.307C83.098 186.307 82.3452 186.151 81.669 185.838C80.9929 185.52 80.456 185.062 80.0582 184.466C79.6605 183.864 79.4616 183.136 79.4616 182.284C79.4616 181.534 79.6094 180.926 79.9048 180.46C80.2003 179.989 80.5952 179.619 81.0895 179.352C81.5838 179.085 82.1293 178.886 82.7259 178.756C83.3281 178.619 83.9332 178.511 84.5412 178.432C85.3366 178.33 85.9815 178.253 86.4759 178.202C86.9759 178.145 87.3395 178.051 87.5668 177.92C87.7997 177.79 87.9162 177.562 87.9162 177.239V177.17C87.9162 176.33 87.6861 175.676 87.2259 175.21C86.7713 174.744 86.081 174.511 85.1548 174.511C84.1946 174.511 83.4418 174.722 82.8963 175.142C82.3509 175.562 81.9673 176.011 81.7457 176.489L79.8366 175.807C80.1776 175.011 80.6321 174.392 81.2003 173.949C81.7741 173.5 82.3991 173.187 83.0753 173.011C83.7571 172.83 84.4276 172.739 85.0866 172.739C85.5071 172.739 85.9901 172.79 86.5355 172.892C87.0866 172.989 87.6179 173.19 88.1293 173.497C88.6463 173.804 89.0753 174.267 89.4162 174.886C89.7571 175.506 89.9276 176.335 89.9276 177.375V186H87.9162V184.227H87.8139C87.6776 184.511 87.4503 184.815 87.1321 185.139C86.8139 185.463 86.3906 185.739 85.8622 185.966C85.3338 186.193 84.6889 186.307 83.9276 186.307ZM84.2344 184.5C85.0298 184.5 85.7003 184.344 86.2457 184.031C86.7969 183.719 87.2116 183.315 87.4901 182.821C87.7741 182.327 87.9162 181.807 87.9162 181.261V179.42C87.831 179.523 87.6435 179.616 87.3537 179.702C87.0696 179.781 86.7401 179.852 86.3651 179.915C85.9957 179.972 85.6349 180.023 85.2827 180.068C84.9361 180.108 84.6548 180.142 84.4389 180.17C83.9162 180.239 83.4276 180.349 82.973 180.503C82.5241 180.651 82.1605 180.875 81.8821 181.176C81.6094 181.472 81.473 181.875 81.473 182.386C81.473 183.085 81.7315 183.614 82.2486 183.972C82.7713 184.324 83.4332 184.5 84.2344 184.5ZM102.871 175.841L101.065 176.352C100.951 176.051 100.783 175.759 100.562 175.474C100.346 175.185 100.05 174.946 99.6754 174.759C99.3004 174.571 98.8203 174.477 98.2351 174.477C97.4339 174.477 96.7663 174.662 96.2322 175.031C95.7038 175.395 95.4396 175.858 95.4396 176.42C95.4396 176.92 95.6214 177.315 95.9851 177.605C96.3487 177.895 96.9169 178.136 97.6896 178.33L99.6328 178.807C100.803 179.091 101.675 179.526 102.249 180.111C102.823 180.69 103.11 181.437 103.11 182.352C103.11 183.102 102.894 183.773 102.462 184.364C102.036 184.955 101.44 185.42 100.673 185.761C99.9055 186.102 99.0135 186.273 97.9964 186.273C96.6612 186.273 95.5561 185.983 94.6811 185.403C93.8061 184.824 93.2521 183.977 93.0192 182.864L94.9283 182.386C95.1101 183.091 95.4538 183.619 95.9595 183.972C96.4709 184.324 97.1385 184.5 97.9624 184.5C98.8999 184.5 99.6442 184.301 100.195 183.903C100.752 183.5 101.031 183.017 101.031 182.455C101.031 182 100.871 181.619 100.553 181.312C100.235 181 99.7464 180.767 99.0874 180.614L96.9055 180.102C95.7067 179.818 94.826 179.378 94.2635 178.781C93.7067 178.179 93.4283 177.426 93.4283 176.523C93.4283 175.784 93.6357 175.131 94.0504 174.562C94.4709 173.994 95.0419 173.548 95.7635 173.224C96.4908 172.901 97.3146 172.739 98.2351 172.739C99.5305 172.739 100.548 173.023 101.286 173.591C102.031 174.159 102.559 174.909 102.871 175.841ZM115.411 175.841L113.604 176.352C113.49 176.051 113.322 175.759 113.101 175.474C112.885 175.185 112.589 174.946 112.214 174.759C111.839 174.571 111.359 174.477 110.774 174.477C109.973 174.477 109.305 174.662 108.771 175.031C108.243 175.395 107.979 175.858 107.979 176.42C107.979 176.92 108.161 177.315 108.524 177.605C108.888 177.895 109.456 178.136 110.229 178.33L112.172 178.807C113.342 179.091 114.214 179.526 114.788 180.111C115.362 180.69 115.649 181.437 115.649 182.352C115.649 183.102 115.433 183.773 115.001 184.364C114.575 184.955 113.979 185.42 113.212 185.761C112.445 186.102 111.553 186.273 110.536 186.273C109.2 186.273 108.095 185.983 107.22 185.403C106.345 184.824 105.791 183.977 105.558 182.864L107.467 182.386C107.649 183.091 107.993 183.619 108.499 183.972C109.01 184.324 109.678 184.5 110.501 184.5C111.439 184.5 112.183 184.301 112.734 183.903C113.291 183.5 113.57 183.017 113.57 182.455C113.57 182 113.411 181.619 113.092 181.312C112.774 181 112.286 180.767 111.626 180.614L109.445 180.102C108.246 179.818 107.365 179.378 106.803 178.781C106.246 178.179 105.967 177.426 105.967 176.523C105.967 175.784 106.175 175.131 106.589 174.562C107.01 173.994 107.581 173.548 108.303 173.224C109.03 172.901 109.854 172.739 110.774 172.739C112.07 172.739 113.087 173.023 113.825 173.591C114.57 174.159 115.098 174.909 115.411 175.841ZM121.643 186L117.654 172.909H119.768L122.597 182.932H122.734L125.529 172.909H127.677L130.438 182.898H130.575L133.404 172.909H135.518L131.529 186H129.552L126.688 175.943H126.484L123.62 186H121.643ZM143.05 186.273C141.868 186.273 140.831 185.991 139.939 185.429C139.053 184.866 138.359 184.08 137.859 183.068C137.365 182.057 137.118 180.875 137.118 179.523C137.118 178.159 137.365 176.969 137.859 175.952C138.359 174.935 139.053 174.145 139.939 173.582C140.831 173.02 141.868 172.739 143.05 172.739C144.232 172.739 145.266 173.02 146.152 173.582C147.044 174.145 147.737 174.935 148.232 175.952C148.732 176.969 148.982 178.159 148.982 179.523C148.982 180.875 148.732 182.057 148.232 183.068C147.737 184.08 147.044 184.866 146.152 185.429C145.266 185.991 144.232 186.273 143.05 186.273ZM143.05 184.466C143.947 184.466 144.686 184.236 145.266 183.776C145.845 183.315 146.274 182.71 146.553 181.96C146.831 181.21 146.97 180.398 146.97 179.523C146.97 178.648 146.831 177.832 146.553 177.077C146.274 176.321 145.845 175.71 145.266 175.244C144.686 174.778 143.947 174.545 143.05 174.545C142.152 174.545 141.413 174.778 140.834 175.244C140.254 175.71 139.825 176.321 139.547 177.077C139.268 177.832 139.129 178.648 139.129 179.523C139.129 180.398 139.268 181.21 139.547 181.96C139.825 182.71 140.254 183.315 140.834 183.776C141.413 184.236 142.152 184.466 143.05 184.466ZM152.052 186V172.909H153.995V174.886H154.131C154.37 174.239 154.802 173.713 155.427 173.31C156.052 172.906 156.756 172.705 157.54 172.705C157.688 172.705 157.873 172.707 158.094 172.713C158.316 172.719 158.484 172.727 158.597 172.739V174.784C158.529 174.767 158.373 174.741 158.129 174.707C157.89 174.668 157.637 174.648 157.37 174.648C156.734 174.648 156.165 174.781 155.665 175.048C155.171 175.31 154.779 175.673 154.489 176.139C154.205 176.599 154.063 177.125 154.063 177.716V186H152.052ZM165.526 186.273C164.435 186.273 163.472 185.997 162.637 185.446C161.802 184.889 161.148 184.105 160.677 183.094C160.205 182.077 159.969 180.875 159.969 179.489C159.969 178.114 160.205 176.92 160.677 175.909C161.148 174.898 161.805 174.116 162.646 173.565C163.487 173.014 164.458 172.739 165.56 172.739C166.413 172.739 167.086 172.881 167.58 173.165C168.08 173.443 168.461 173.761 168.722 174.119C168.989 174.472 169.197 174.761 169.344 174.989H169.515V168.545H171.526V186H169.583V183.989H169.344C169.197 184.227 168.987 184.528 168.714 184.892C168.441 185.25 168.052 185.571 167.546 185.855C167.04 186.134 166.367 186.273 165.526 186.273ZM165.799 184.466C166.606 184.466 167.288 184.256 167.844 183.835C168.401 183.409 168.825 182.821 169.114 182.071C169.404 181.315 169.549 180.443 169.549 179.455C169.549 178.477 169.407 177.622 169.123 176.889C168.839 176.151 168.418 175.577 167.862 175.168C167.305 174.753 166.617 174.545 165.799 174.545C164.947 174.545 164.237 174.764 163.668 175.202C163.106 175.634 162.683 176.222 162.398 176.966C162.12 177.705 161.981 178.534 161.981 179.455C161.981 180.386 162.123 181.233 162.407 181.994C162.697 182.75 163.123 183.352 163.685 183.801C164.254 184.244 164.958 184.466 165.799 184.466ZM184.762 175.841L182.955 176.352C182.842 176.051 182.674 175.759 182.452 175.474C182.237 175.185 181.941 174.946 181.566 174.759C181.191 174.571 180.711 174.477 180.126 174.477C179.325 174.477 178.657 174.662 178.123 175.031C177.594 175.395 177.33 175.858 177.33 176.42C177.33 176.92 177.512 177.315 177.876 177.605C178.239 177.895 178.808 178.136 179.58 178.33L181.523 178.807C182.694 179.091 183.566 179.526 184.14 180.111C184.714 180.69 185.001 181.437 185.001 182.352C185.001 183.102 184.785 183.773 184.353 184.364C183.927 184.955 183.33 185.42 182.563 185.761C181.796 186.102 180.904 186.273 179.887 186.273C178.552 186.273 177.447 185.983 176.572 185.403C175.697 184.824 175.143 183.977 174.91 182.864L176.819 182.386C177.001 183.091 177.344 183.619 177.85 183.972C178.362 184.324 179.029 184.5 179.853 184.5C180.79 184.5 181.535 184.301 182.086 183.903C182.643 183.5 182.921 183.017 182.921 182.455C182.921 182 182.762 181.619 182.444 181.312C182.126 181 181.637 180.767 180.978 180.614L178.796 180.102C177.597 179.818 176.717 179.378 176.154 178.781C175.597 178.179 175.319 177.426 175.319 176.523C175.319 175.784 175.526 175.131 175.941 174.562C176.362 173.994 176.933 173.548 177.654 173.224C178.381 172.901 179.205 172.739 180.126 172.739C181.421 172.739 182.438 173.023 183.177 173.591C183.921 174.159 184.45 174.909 184.762 175.841Z" fill="black"/>
<line x1="63" y1="130.5" x2="457" y2="130.5" stroke="#B6B6B6" stroke-opacity="0.5"/>
<g clip-path="url(#clip0_3_190)">
<path d="M83.6154 90.1538C83.6154 88.375 82.9832 86.8534 81.7188 85.5889C80.4543 84.3245 78.9327 83.6923 77.1538 83.6923C75.375 83.6923 73.8534 84.3245 72.5889 85.5889C71.3245 86.8534 70.6923 88.375 70.6923 90.1538C70.6923 91.9327 71.3245 93.4543 72.5889 94.7188C73.8534 95.9832 75.375 96.6154 77.1538 96.6154C78.9327 96.6154 80.4543 95.9832 81.7188 94.7188C82.9832 93.4543 83.6154 91.9327 83.6154 90.1538ZM91 102.154C91 102.654 90.8173 103.087 90.4519 103.452C90.0865 103.817 89.6538 104 89.1538 104C88.6346 104 88.2019 103.817 87.8558 103.452L82.9087 98.5192C81.1875 99.7115 79.2692 100.308 77.1538 100.308C75.7788 100.308 74.4639 100.041 73.2091 99.5072C71.9543 98.9736 70.8726 98.2524 69.9639 97.3438C69.0553 96.4351 68.3341 95.3534 67.8005 94.0986C67.2668 92.8438 67 91.5288 67 90.1538C67 88.7788 67.2668 87.4639 67.8005 86.2091C68.3341 84.9543 69.0553 83.8726 69.9639 82.9639C70.8726 82.0553 71.9543 81.3341 73.2091 80.8005C74.4639 80.2668 75.7788 80 77.1538 80C78.5288 80 79.8438 80.2668 81.0986 80.8005C82.3534 81.3341 83.4351 82.0553 84.3438 82.9639C85.2524 83.8726 85.9736 84.9543 86.5072 86.2091C87.0409 87.4639 87.3077 88.7788 87.3077 90.1538C87.3077 92.2692 86.7115 94.1875 85.5192 95.9087L90.4663 100.856C90.8221 101.212 91 101.644 91 102.154Z" fill="#B5B5B5" fill-opacity="0.8"/>
</g>
<path d="M116.716 88.0909C116.631 87.3712 116.285 86.8125 115.679 86.4148C115.073 86.017 114.33 85.8182 113.449 85.8182C112.805 85.8182 112.241 85.9223 111.759 86.1307C111.28 86.339 110.906 86.6255 110.636 86.9901C110.371 87.3546 110.239 87.7689 110.239 88.233C110.239 88.6212 110.331 88.955 110.516 89.2344C110.705 89.509 110.946 89.7386 111.24 89.9233C111.534 90.1032 111.841 90.2524 112.163 90.3707C112.485 90.4844 112.781 90.5767 113.051 90.6477L114.528 91.0455C114.907 91.1449 115.329 91.2822 115.793 91.4574C116.261 91.6326 116.709 91.8717 117.135 92.1747C117.566 92.473 117.921 92.8565 118.2 93.3253C118.48 93.794 118.619 94.3693 118.619 95.0511C118.619 95.8371 118.413 96.5473 118.001 97.1818C117.594 97.8163 116.998 98.3205 116.212 98.6946C115.43 99.0687 114.481 99.2557 113.364 99.2557C112.322 99.2557 111.42 99.0876 110.658 98.7514C109.9 98.4152 109.304 97.9465 108.868 97.3452C108.437 96.7438 108.193 96.0455 108.136 95.25H109.955C110.002 95.7992 110.187 96.2538 110.509 96.6136C110.835 96.9687 111.247 97.2339 111.744 97.4091C112.246 97.5795 112.786 97.6648 113.364 97.6648C114.036 97.6648 114.64 97.5559 115.175 97.3381C115.71 97.1155 116.134 96.8078 116.446 96.4148C116.759 96.017 116.915 95.553 116.915 95.0227C116.915 94.5398 116.78 94.1468 116.51 93.8438C116.24 93.5407 115.885 93.2945 115.445 93.1051C115.004 92.9157 114.528 92.75 114.017 92.608L112.227 92.0966C111.091 91.7699 110.191 91.3035 109.528 90.6974C108.866 90.0914 108.534 89.2983 108.534 88.3182C108.534 87.5038 108.754 86.7936 109.195 86.1875C109.64 85.5767 110.236 85.1032 110.984 84.767C111.737 84.4261 112.578 84.2557 113.506 84.2557C114.443 84.2557 115.277 84.4238 116.006 84.7599C116.735 85.0914 117.313 85.5459 117.739 86.1236C118.17 86.7012 118.397 87.357 118.42 88.0909H116.716ZM125.862 99.2273C124.811 99.2273 123.904 98.9953 123.142 98.5312C122.384 98.0625 121.799 97.4091 121.387 96.571C120.98 95.7282 120.777 94.7481 120.777 93.6307C120.777 92.5133 120.98 91.5284 121.387 90.6761C121.799 89.8191 122.372 89.1515 123.106 88.6733C123.845 88.1903 124.707 87.9489 125.691 87.9489C126.26 87.9489 126.821 88.0436 127.375 88.233C127.929 88.4223 128.433 88.7301 128.887 89.1562C129.342 89.5777 129.704 90.1364 129.974 90.8324C130.244 91.5284 130.379 92.3854 130.379 93.4034V94.1136H121.97V92.6648H128.674C128.674 92.0492 128.551 91.5 128.305 91.017C128.064 90.5341 127.718 90.1529 127.268 89.8736C126.823 89.5942 126.297 89.4545 125.691 89.4545C125.024 89.4545 124.446 89.6203 123.958 89.9517C123.475 90.2784 123.104 90.7045 122.843 91.2301C122.583 91.7557 122.453 92.3191 122.453 92.9205V93.8864C122.453 94.7102 122.595 95.4086 122.879 95.9815C123.168 96.5497 123.568 96.983 124.079 97.2812C124.591 97.5748 125.185 97.7216 125.862 97.7216C126.302 97.7216 126.7 97.66 127.055 97.5369C127.415 97.4091 127.725 97.2197 127.985 96.9688C128.246 96.7131 128.447 96.3958 128.589 96.017L130.208 96.4716C130.038 97.0208 129.752 97.5038 129.349 97.9205C128.947 98.3324 128.449 98.6544 127.858 98.8864C127.266 99.1136 126.6 99.2273 125.862 99.2273ZM136.139 99.2557C135.448 99.2557 134.82 99.1255 134.257 98.8651C133.693 98.5999 133.246 98.2188 132.914 97.7216C132.583 97.2197 132.417 96.6136 132.417 95.9034C132.417 95.2784 132.54 94.7718 132.787 94.3835C133.033 93.9905 133.362 93.6828 133.774 93.4602C134.186 93.2377 134.64 93.072 135.137 92.9631C135.639 92.8494 136.144 92.7595 136.65 92.6932C137.313 92.608 137.85 92.544 138.262 92.5014C138.679 92.4541 138.982 92.3759 139.172 92.267C139.366 92.1581 139.463 91.9687 139.463 91.6989V91.642C139.463 90.9413 139.271 90.3968 138.887 90.0085C138.509 89.6203 137.933 89.4261 137.162 89.4261C136.361 89.4261 135.734 89.6013 135.279 89.9517C134.825 90.3021 134.505 90.6761 134.321 91.0739L132.73 90.5057C133.014 89.8428 133.393 89.3267 133.866 88.9574C134.344 88.5833 134.865 88.3229 135.429 88.1761C135.997 88.0246 136.556 87.9489 137.105 87.9489C137.455 87.9489 137.858 87.9915 138.312 88.0767C138.771 88.1572 139.214 88.3253 139.64 88.581C140.071 88.8366 140.429 89.2225 140.713 89.7386C140.997 90.2547 141.139 90.946 141.139 91.8125V99H139.463V97.5227H139.377C139.264 97.7595 139.074 98.0128 138.809 98.2827C138.544 98.5526 138.191 98.7822 137.751 98.9716C137.311 99.161 136.773 99.2557 136.139 99.2557ZM136.395 97.75C137.057 97.75 137.616 97.6198 138.071 97.3594C138.53 97.099 138.876 96.7628 139.108 96.3509C139.344 95.9389 139.463 95.5057 139.463 95.0511V93.517C139.392 93.6023 139.235 93.6804 138.994 93.7514C138.757 93.8177 138.483 93.8769 138.17 93.929C137.862 93.9763 137.562 94.0189 137.268 94.0568C136.979 94.09 136.745 94.1184 136.565 94.142C136.129 94.1989 135.722 94.2912 135.343 94.419C134.969 94.5421 134.666 94.7292 134.434 94.9801C134.207 95.2263 134.093 95.5625 134.093 95.9886C134.093 96.571 134.309 97.0114 134.74 97.3097C135.175 97.6032 135.727 97.75 136.395 97.75ZM144.198 99V88.0909H145.817V89.7386H145.931C146.13 89.1989 146.49 88.7609 147.011 88.4247C147.531 88.0885 148.119 87.9205 148.772 87.9205C148.895 87.9205 149.049 87.9228 149.234 87.9276C149.418 87.9323 149.558 87.9394 149.653 87.9489V89.6534C149.596 89.6392 149.466 89.6179 149.262 89.5895C149.063 89.5563 148.853 89.5398 148.63 89.5398C148.1 89.5398 147.626 89.651 147.21 89.8736C146.798 90.0914 146.471 90.3944 146.229 90.7827C145.993 91.1662 145.874 91.6042 145.874 92.0966V99H144.198ZM155.739 99.2273C154.717 99.2273 153.836 98.9858 153.097 98.5028C152.359 98.0199 151.79 97.3546 151.393 96.5071C150.995 95.6596 150.796 94.6913 150.796 93.6023C150.796 92.4943 151 91.5166 151.407 90.669C151.819 89.8168 152.392 89.1515 153.126 88.6733C153.864 88.1903 154.726 87.9489 155.711 87.9489C156.478 87.9489 157.169 88.0909 157.785 88.375C158.4 88.6591 158.905 89.0568 159.298 89.5682C159.691 90.0795 159.934 90.6761 160.029 91.358H158.353C158.225 90.8608 157.941 90.4205 157.501 90.0369C157.065 89.6487 156.478 89.4545 155.739 89.4545C155.086 89.4545 154.513 89.625 154.021 89.9659C153.533 90.3021 153.152 90.7779 152.877 91.3935C152.607 92.0043 152.472 92.7216 152.472 93.5455C152.472 94.3883 152.605 95.1222 152.87 95.7472C153.14 96.3722 153.519 96.8575 154.006 97.2031C154.499 97.5488 155.076 97.7216 155.739 97.7216C156.175 97.7216 156.57 97.6458 156.925 97.4943C157.281 97.3428 157.581 97.125 157.827 96.8409C158.074 96.5568 158.249 96.2159 158.353 95.8182H160.029C159.934 96.4621 159.7 97.0421 159.326 97.5582C158.957 98.0696 158.467 98.4768 157.856 98.7798C157.25 99.0781 156.544 99.2273 155.739 99.2273ZM164.156 92.4375V99H162.479V84.4545H164.156V89.7955H164.298C164.553 89.232 164.937 88.7846 165.448 88.4531C165.964 88.117 166.651 87.9489 167.508 87.9489C168.251 87.9489 168.902 88.098 169.461 88.3963C170.02 88.6899 170.453 89.142 170.761 89.7528C171.073 90.3589 171.229 91.1307 171.229 92.0682V99H169.553V92.1818C169.553 91.3153 169.328 90.6454 168.879 90.1719C168.433 89.6937 167.816 89.4545 167.025 89.4545C166.476 89.4545 165.983 89.5705 165.548 89.8026C165.117 90.0346 164.776 90.3731 164.525 90.8182C164.279 91.2633 164.156 91.803 164.156 92.4375Z" fill="black" fill-opacity="0.46"/>
<rect x="55" y="892" width="402" height="64" rx="8" fill="#98B6C2"/>
<path d="M255.756 905.265L256 905.25C256.51 905.25 257.003 905.437 257.384 905.776C257.765 906.116 258.009 906.583 258.069 907.09L258.083 907.333V921.917H272.667C273.177 921.917 273.669 922.104 274.051 922.443C274.432 922.782 274.676 923.249 274.735 923.756L274.75 924C274.75 924.51 274.563 925.003 274.224 925.384C273.884 925.765 273.417 926.009 272.91 926.069L272.667 926.083H258.083V940.667C258.083 941.177 257.896 941.669 257.557 942.051C257.218 942.432 256.751 942.676 256.244 942.735L256 942.75C255.49 942.75 254.997 942.563 254.616 942.224C254.235 941.884 253.991 941.417 253.931 940.91L253.917 940.667V926.083H239.333C238.823 926.083 238.331 925.896 237.949 925.557C237.568 925.218 237.324 924.751 237.265 924.244L237.25 924C237.25 923.49 237.437 922.997 237.776 922.616C238.116 922.235 238.583 921.991 239.09 921.931L239.333 921.917H253.917V907.333C253.917 906.823 254.104 906.331 254.443 905.949C254.782 905.568 255.249 905.324 255.756 905.265L256 905.25L255.756 905.265Z" fill="white"/>
<path d="M1082.19 587.947L1063.39 327.223L1006.54 293H849.999L871.276 587.947H1082.19Z" fill="white"/>
<path d="M1085.29 593.407H874.375C873.677 593.423 873 593.168 872.486 592.696C871.972 592.224 871.661 591.571 871.617 590.874L850.397 295.927C850.37 295.557 850.421 295.185 850.547 294.836C850.673 294.487 850.871 294.168 851.128 293.901C851.377 293.623 851.68 293.399 852.019 293.244C852.358 293.089 852.726 293.006 853.098 293H1009.63C1010.13 293.017 1010.61 293.152 1011.04 293.394L1067.89 327.617C1068.27 327.836 1068.6 328.146 1068.83 328.518C1069.07 328.891 1069.21 329.316 1069.24 329.756L1087.93 590.48C1087.97 590.86 1087.92 591.243 1087.8 591.603C1087.67 591.964 1087.47 592.291 1087.2 592.563C1086.95 592.826 1086.66 593.037 1086.33 593.182C1086 593.327 1085.64 593.404 1085.29 593.407ZM877.021 587.778H1082.3L1063.84 331.388L1009.13 298.46H856.025L877.021 587.778Z" fill="#98B6C2"/>
<path d="M1066.49 329.981L1009.63 295.758L1030.52 341.126L1066.49 329.981Z" fill="#EBEBEB"/>
<path d="M1030.52 343.828C1030 343.825 1029.49 343.676 1029.05 343.397C1028.61 343.118 1028.26 342.721 1028.04 342.252L1007.16 296.884C1006.91 296.351 1006.84 295.756 1006.95 295.181C1007.07 294.606 1007.35 294.08 1007.78 293.676C1008.22 293.294 1008.78 293.061 1009.36 293.011C1009.95 292.96 1010.54 293.094 1011.04 293.394L1067.89 327.617C1068.35 327.893 1068.72 328.293 1068.96 328.772C1069.2 329.25 1069.3 329.787 1069.24 330.319C1069.17 330.837 1068.95 331.324 1068.61 331.723C1068.27 332.121 1067.83 332.415 1067.33 332.571L1031.31 343.828H1030.52ZM1015.83 302.625L1031.98 337.805L1060.12 329.193L1015.83 302.625Z" fill="#98B6C2"/>
<path d="M941.583 428.597C941.667 430.127 941.439 431.657 940.911 433.095C940.383 434.534 939.567 435.849 938.513 436.961C937.459 438.072 936.189 438.957 934.782 439.561C933.374 440.166 931.858 440.476 930.326 440.474C927.112 440.416 924.034 439.171 921.685 436.977C919.336 434.784 917.882 431.799 917.605 428.597C917.46 427.051 917.646 425.492 918.151 424.024C918.656 422.556 919.468 421.213 920.534 420.084C921.599 418.954 922.893 418.065 924.329 417.475C925.765 416.886 927.311 416.609 928.862 416.664C932.081 416.735 935.159 417.993 937.507 420.195C939.855 422.398 941.306 425.39 941.583 428.597Z" fill="#98B6C2"/>
<path d="M1018.7 428.597C1018.83 430.138 1018.64 431.691 1018.13 433.152C1017.62 434.613 1016.81 435.95 1015.74 437.073C1014.68 438.196 1013.39 439.08 1011.96 439.666C1010.53 440.252 1008.99 440.528 1007.44 440.474C1004.22 440.418 1001.13 439.174 998.776 436.982C996.418 434.79 994.953 431.804 994.662 428.597C994.569 427.063 994.792 425.526 995.317 424.081C995.841 422.637 996.656 421.315 997.71 420.197C998.765 419.079 1000.04 418.188 1001.45 417.581C1002.86 416.973 1004.38 416.661 1005.92 416.664C1009.15 416.709 1012.25 417.956 1014.61 420.163C1016.98 422.369 1018.43 425.376 1018.7 428.597Z" fill="#98B6C2"/>
<path d="M1040.54 505.936C1039.85 505.924 1039.2 505.659 1038.7 505.191C1038.2 504.722 1037.89 504.085 1037.83 503.403C1036.43 484.209 1006.37 468.617 970.852 468.617C947.268 468.617 926.104 475.653 915.634 486.911C913.483 488.985 911.799 491.493 910.692 494.269C909.586 497.045 909.083 500.024 909.217 503.009C909.243 503.379 909.196 503.75 909.078 504.101C908.961 504.453 908.775 504.777 908.532 505.057C908.041 505.622 907.346 505.968 906.6 506.021C905.853 506.073 905.117 505.826 904.552 505.336C903.987 504.845 903.641 504.15 903.589 503.403C903.421 499.672 904.035 495.946 905.393 492.467C906.75 488.987 908.819 485.829 911.469 483.196C922.726 470.869 945.635 463.158 970.683 463.158C1009.69 463.158 1041.49 480.663 1043.07 503.009C1043.09 503.364 1043.04 503.72 1042.93 504.057C1042.81 504.393 1042.63 504.704 1042.4 504.971C1042.16 505.237 1041.88 505.455 1041.56 505.611C1041.24 505.767 1040.89 505.858 1040.54 505.88V505.936Z" fill="#98B6C2"/>
<path d="M897.51 404.506C896.823 404.492 896.164 404.233 895.652 403.774C895.14 403.258 894.853 402.56 894.853 401.832C894.853 401.105 895.14 400.407 895.652 399.89L907.641 387.001C908.155 386.505 908.841 386.229 909.555 386.229C910.269 386.229 910.955 386.505 911.469 387.001C911.721 387.252 911.921 387.55 912.057 387.878C912.193 388.207 912.264 388.559 912.264 388.914C912.264 389.27 912.193 389.622 912.057 389.95C911.921 390.279 911.721 390.577 911.469 390.828L899.48 403.718C899.221 403.976 898.914 404.178 898.575 404.313C898.237 404.449 897.874 404.514 897.51 404.506Z" fill="#98B6C2"/>
<path d="M1034.91 404.506C1034.22 404.474 1033.57 404.217 1033.05 403.774L1019.26 390.884C1019 390.632 1018.79 390.331 1018.65 389.997C1018.51 389.664 1018.44 389.305 1018.44 388.942C1018.44 388.58 1018.51 388.221 1018.65 387.888C1018.79 387.554 1019 387.253 1019.26 387.001C1019.77 386.505 1020.46 386.229 1021.17 386.229C1021.89 386.229 1022.57 386.505 1023.09 387.001L1036.88 399.89C1037.13 400.141 1037.33 400.44 1037.47 400.768C1037.6 401.097 1037.67 401.449 1037.67 401.804C1037.67 402.16 1037.6 402.512 1037.47 402.84C1037.33 403.169 1037.13 403.467 1036.88 403.718C1036.34 404.218 1035.64 404.499 1034.91 404.506Z" fill="#98B6C2"/>
<path d="M833 646.205H845.721L864.071 670.634L862.326 646.205H875.159L878.312 690.335H865.309L847.072 666.075L848.817 690.335H835.983L833 646.205Z" fill="#98B6C2"/>
<path d="M884.053 668.27C883.618 665.273 883.825 662.218 884.659 659.307C885.494 656.396 886.937 653.696 888.893 651.384C891.032 649.281 893.593 647.656 896.408 646.617C899.222 645.579 902.224 645.151 905.217 645.361C911.559 645.017 917.79 647.134 922.61 651.271C927.025 655.668 929.584 661.592 929.758 667.82C930.223 672.116 929.643 676.46 928.069 680.485C926.612 683.725 924.17 686.424 921.09 688.196C917.394 690.177 913.234 691.13 909.044 690.954C904.738 691.091 900.454 690.284 896.492 688.59C893.022 686.924 890.094 684.309 888.049 681.047C885.634 677.206 884.257 672.803 884.053 668.27ZM897.73 668.27C897.676 671.723 898.786 675.094 900.883 677.839C901.762 678.807 902.842 679.571 904.048 680.077C905.254 680.582 906.556 680.818 907.862 680.766C909.11 680.853 910.36 680.638 911.507 680.138C912.653 679.638 913.662 678.869 914.448 677.895C916.064 674.821 916.6 671.292 915.968 667.876C915.991 664.566 914.879 661.347 912.816 658.758C911.914 657.807 910.82 657.06 909.607 656.565C908.394 656.07 907.089 655.839 905.78 655.887C904.555 655.834 903.335 656.071 902.22 656.58C901.105 657.089 900.126 657.854 899.363 658.814C897.715 661.714 897.137 665.1 897.73 668.383V668.27Z" fill="#98B6C2"/>
<path d="M956.214 646.205H976.477C979.818 646.099 983.146 646.654 986.272 647.838C988.745 648.874 990.942 650.474 992.688 652.51C994.461 654.576 995.817 656.965 996.685 659.546C997.597 662.317 998.165 665.191 998.373 668.101C998.806 671.78 998.519 675.508 997.529 679.077C996.754 681.549 995.381 683.792 993.533 685.607C991.991 687.238 990.051 688.441 987.904 689.097C985.286 689.856 982.58 690.272 979.855 690.335H959.647L956.214 646.205ZM970.567 656.225L972.312 680.316H975.633C977.687 680.45 979.745 680.123 981.656 679.359C982.916 678.629 983.844 677.438 984.245 676.038C984.89 673.539 985.042 670.94 984.695 668.383C984.803 664.949 983.752 661.578 981.712 658.814C980.667 657.869 979.437 657.15 978.1 656.705C976.763 656.259 975.348 656.095 973.945 656.225H970.567Z" fill="#98B6C2"/>
<path d="M1031.08 683.018H1015.6L1013.97 690.335H1000.06L1013.46 646.205H1028.54L1048.3 690.335H1034L1031.08 683.018ZM1027.53 673.505L1021.56 657.632L1017.85 673.505H1027.53Z" fill="#98B6C2"/>
<path d="M1041.88 646.205H1083.31L1084.1 657.125H1070.2L1072.56 690.335H1058.94L1056.57 657.125H1042.67L1041.88 646.205Z" fill="#98B6C2"/>
<path d="M1115.06 683.018H1099.58L1097.95 690.335H1084.04L1097.44 646.205H1112.3L1132 690.335H1117.76L1115.06 683.018ZM1111.51 673.505L1105.49 657.632L1101.72 673.505H1111.51Z" fill="#98B6C2"/>
<defs>
<clipPath id="clip0_3_190">
<rect width="24" height="24" fill="white" transform="translate(67 80)"/>
</clipPath>
</defs>
</svg>
