<svg width="299" height="398" viewBox="0 0 299 398" fill="none" xmlns="http://www.w3.org/2000/svg">
<path d="M249.186 294.947L230.386 34.2229L173.535 0H16.999L38.2758 294.947H249.186Z" fill="white"/>
<path d="M252.285 300.407H41.3752C40.6773 300.423 40.0003 300.168 39.4862 299.696C38.972 299.224 38.6606 298.571 38.6171 297.874L17.3967 2.9269C17.3697 2.5567 17.4208 2.18497 17.5469 1.83586C17.673 1.48675 17.871 1.16815 18.1283 0.900623C18.3768 0.622715 18.6801 0.399172 19.0192 0.24418C19.3582 0.0891877 19.7257 0.0060796 20.0984 0H176.634C177.128 0.0171645 177.611 0.152221 178.042 0.393969L234.892 34.6169C235.275 34.8361 235.598 35.1456 235.833 35.5184C236.069 35.8913 236.21 36.3161 236.243 36.7558L254.931 297.48C254.97 297.86 254.924 298.243 254.798 298.603C254.671 298.964 254.467 299.291 254.199 299.563C253.954 299.826 253.658 300.037 253.329 300.182C253 300.327 252.645 300.404 252.285 300.407ZM44.0207 294.778H249.302L230.839 38.3881L176.128 5.45991H23.0254L44.0207 294.778Z" fill="#98B6C2"/>
<path d="M233.485 36.9811L176.635 2.75818L197.518 48.1261L233.485 36.9811Z" fill="#EBEBEB"/>
<path d="M197.517 50.8281C196.998 50.8252 196.49 50.6757 196.052 50.3969C195.614 50.1181 195.263 49.7213 195.041 49.252L174.158 3.88419C173.915 3.35147 173.843 2.75597 173.954 2.18085C174.065 1.60574 174.353 1.07961 174.777 0.67575C175.224 0.293868 175.779 0.0613634 176.364 0.0108902C176.95 -0.039583 177.536 0.0944904 178.042 0.394295L234.892 34.6172C235.351 34.8926 235.722 35.293 235.961 35.7715C236.2 36.2501 236.298 36.7868 236.243 37.319C236.171 37.8372 235.952 38.324 235.613 38.7227C235.275 39.1213 234.829 39.4154 234.33 39.5705L198.305 50.8281H197.517ZM182.826 9.62547L198.981 44.8053L227.125 36.1933L182.826 9.62547Z" fill="#98B6C2"/>
<path d="M108.583 135.597C108.667 137.127 108.438 138.657 107.91 140.095C107.383 141.534 106.567 142.849 105.513 143.961C104.459 145.072 103.189 145.957 101.781 146.561C100.374 147.166 98.8573 147.476 97.3254 147.474C94.1121 147.416 91.034 146.171 88.6849 143.977C86.3357 141.784 84.8821 138.799 84.6044 135.597C84.4594 134.051 84.6456 132.492 85.1506 131.024C85.6557 129.556 86.4681 128.213 87.5334 127.084C88.5988 125.954 89.8927 125.065 91.3288 124.475C92.765 123.886 94.3104 123.609 95.8619 123.664C99.0803 123.735 102.159 124.993 104.507 127.195C106.855 129.398 108.306 132.39 108.583 135.597Z" fill="#98B6C2"/>
<path d="M185.697 135.597C185.833 137.138 185.641 138.691 185.132 140.152C184.623 141.613 183.809 142.95 182.745 144.073C181.68 145.196 180.389 146.08 178.958 146.666C177.526 147.252 175.986 147.528 174.439 147.474C171.22 147.418 168.135 146.174 165.777 143.982C163.418 141.79 161.953 138.804 161.662 135.597C161.57 134.063 161.793 132.526 162.317 131.081C162.841 129.637 163.656 128.315 164.71 127.197C165.765 126.079 167.038 125.188 168.449 124.581C169.861 123.973 171.382 123.661 172.919 123.664C176.151 123.709 179.251 124.956 181.613 127.163C183.975 129.369 185.431 132.376 185.697 135.597Z" fill="#98B6C2"/>
<path d="M207.536 212.936C206.852 212.924 206.196 212.659 205.697 212.191C205.198 211.722 204.89 211.085 204.835 210.403C203.427 191.209 173.37 175.617 137.852 175.617C114.268 175.617 93.1036 182.653 82.6341 193.911C80.4833 195.985 78.7987 198.493 77.6923 201.269C76.5859 204.045 76.0831 207.024 76.2173 210.009C76.2431 210.379 76.1959 210.75 76.0784 211.101C75.9609 211.453 75.7753 211.777 75.5322 212.057C75.0414 212.622 74.3463 212.968 73.5999 213.021C72.8535 213.073 72.1168 212.826 71.5521 212.336C70.9873 211.845 70.6408 211.15 70.5885 210.403C70.4209 206.672 71.0354 202.946 72.3925 199.467C73.7496 195.987 75.8192 192.829 78.4687 190.196C89.7263 177.869 112.635 170.158 137.683 170.158C176.691 170.158 208.493 187.663 210.069 210.009C210.092 210.364 210.045 210.72 209.93 211.057C209.815 211.393 209.634 211.704 209.399 211.971C209.164 212.237 208.878 212.455 208.558 212.611C208.239 212.767 207.891 212.858 207.536 212.88V212.936Z" fill="#98B6C2"/>
<path d="M64.5096 111.506C63.8228 111.492 63.1637 111.233 62.6521 110.774C62.1399 110.258 61.8525 109.56 61.8525 108.832C61.8525 108.105 62.1399 107.407 62.6521 106.89L74.6414 94.0006C75.1554 93.5053 75.8413 93.2285 76.5551 93.2285C77.2689 93.2285 77.9549 93.5053 78.4689 94.0006C78.7208 94.2516 78.9207 94.5498 79.0571 94.8783C79.1934 95.2067 79.2636 95.5587 79.2636 95.9143C79.2636 96.2699 79.1934 96.6221 79.0571 96.9505C78.9207 97.2789 78.7208 97.5771 78.4689 97.8281L66.4797 110.718C66.2215 110.976 65.9138 111.178 65.5752 111.313C65.2366 111.449 64.8741 111.514 64.5096 111.506Z" fill="#98B6C2"/>
<path d="M201.907 111.506C201.224 111.474 200.571 111.217 200.05 110.774L186.259 97.8844C185.999 97.6325 185.792 97.3307 185.65 96.9971C185.509 96.6635 185.436 96.3049 185.436 95.9425C185.436 95.5801 185.509 95.2215 185.65 94.8879C185.792 94.5543 185.999 94.2525 186.259 94.0006C186.773 93.5053 187.459 93.2285 188.173 93.2285C188.887 93.2285 189.573 93.5053 190.087 94.0006L203.877 106.89C204.129 107.141 204.329 107.44 204.466 107.768C204.602 108.097 204.672 108.449 204.672 108.804C204.672 109.16 204.602 109.512 204.466 109.84C204.329 110.169 204.129 110.467 203.877 110.718C203.342 111.218 202.639 111.499 201.907 111.506Z" fill="#98B6C2"/>
<path d="M0 353.205H12.7211L31.0708 377.634L29.3259 353.205H42.1595L45.3116 397.335H32.3091L14.0719 373.075L15.8169 397.335H2.98324L0 353.205Z" fill="#98B6C2"/>
<path d="M51.0523 375.27C50.6179 372.273 50.8247 369.218 51.6592 366.307C52.4937 363.396 53.9368 360.696 55.8931 358.384C58.0317 356.281 60.5931 354.656 63.4073 353.617C66.2215 352.579 69.2242 352.151 72.2165 352.361C78.559 352.017 84.7895 354.134 89.6093 358.271C94.0244 362.668 96.5833 368.592 96.7579 374.82C97.2223 379.116 96.643 383.46 95.0693 387.485C93.612 390.725 91.1696 393.424 88.0896 395.196C84.3939 397.177 80.2338 398.13 76.0441 397.954C71.7377 398.091 67.4535 397.284 63.4919 395.59C60.0215 393.924 57.0941 391.309 55.0487 388.047C52.6338 384.206 51.2568 379.803 51.0523 375.27ZM64.7302 375.27C64.6757 378.723 65.7862 382.094 67.8824 384.839C68.7613 385.807 69.8417 386.571 71.0475 387.077C72.2534 387.582 73.5554 387.818 74.862 387.766C76.1097 387.853 77.3601 387.638 78.5067 387.138C79.6532 386.638 80.6621 385.869 81.4476 384.895C83.0641 381.821 83.5994 378.292 82.9674 374.876C82.9912 371.566 81.8786 368.347 79.8153 365.758C78.9135 364.807 77.8196 364.06 76.6065 363.565C75.3933 363.07 74.0887 362.839 72.7794 362.887C71.5547 362.834 70.3349 363.071 69.2197 363.58C68.1044 364.089 67.1254 364.854 66.3626 365.814C64.7146 368.714 64.1369 372.1 64.7302 375.383V375.27Z" fill="#98B6C2"/>
<path d="M123.214 353.205H143.477C146.818 353.099 150.146 353.654 153.272 354.838C155.745 355.874 157.942 357.474 159.688 359.51C161.461 361.576 162.817 363.965 163.685 366.546C164.597 369.317 165.165 372.191 165.373 375.101C165.806 378.78 165.519 382.508 164.529 386.077C163.754 388.549 162.381 390.792 160.533 392.607C158.991 394.238 157.051 395.441 154.904 396.097C152.286 396.856 149.58 397.272 146.855 397.335H126.647L123.214 353.205ZM137.567 363.225L139.312 387.316H142.633C144.687 387.45 146.745 387.123 148.656 386.359C149.916 385.629 150.844 384.438 151.245 383.038C151.89 380.539 152.042 377.94 151.695 375.383C151.803 371.949 150.752 368.578 148.712 365.814C147.667 364.869 146.437 364.15 145.1 363.705C143.763 363.259 142.348 363.095 140.945 363.225H137.567Z" fill="#98B6C2"/>
<path d="M198.077 390.018H182.598L180.966 397.335H167.062L180.459 353.205H195.544L215.301 397.335H201.004L198.077 390.018ZM194.531 380.505L188.564 364.632L184.849 380.505H194.531Z" fill="#98B6C2"/>
<path d="M208.884 353.205H250.312L251.1 364.125H237.196L239.561 397.335H225.939L223.575 364.125H209.672L208.884 353.205Z" fill="#98B6C2"/>
<path d="M282.057 390.018H266.578L264.946 397.335H251.043L264.439 353.205H279.299L299 397.335H284.759L282.057 390.018ZM278.511 380.505L272.489 364.632L268.717 380.505H278.511Z" fill="#98B6C2"/>
</svg>
