<svg width="18" height="20" viewBox="0 0 18 20" fill="none" xmlns="http://www.w3.org/2000/svg">
<path fill-rule="evenodd" clip-rule="evenodd" d="M16.52 0.976006C16.7915 1.20238 16.962 1.5273 16.994 1.87934C17.026 2.23138 16.9169 2.58172 16.6906 2.85334L10.7353 10L16.6906 17.1467C16.8077 17.2805 16.8968 17.4364 16.9528 17.6051C17.0087 17.7739 17.0303 17.9521 17.0163 18.1294C17.0024 18.3066 16.9531 18.4793 16.8714 18.6372C16.7897 18.7951 16.6773 18.9351 16.5407 19.0489C16.4041 19.1627 16.2462 19.2481 16.0761 19.2999C15.9061 19.3518 15.7273 19.3691 15.5505 19.3509C15.3736 19.3327 15.2022 19.2793 15.0463 19.1938C14.8904 19.1084 14.7532 18.9926 14.6426 18.8533L8.99998 12.0827L3.35798 18.8533C3.2468 18.9906 3.10946 19.1044 2.95392 19.1882C2.79838 19.2719 2.62775 19.3239 2.45194 19.3412C2.27614 19.3584 2.09866 19.3405 1.92981 19.2886C1.76097 19.2367 1.60413 19.1517 1.46841 19.0386C1.33268 18.9256 1.22078 18.7867 1.1392 18.63C1.05761 18.4733 1.00798 18.302 0.993177 18.1259C0.978375 17.9499 0.998699 17.7727 1.05297 17.6046C1.10724 17.4365 1.19437 17.2808 1.30931 17.1467L7.26464 10L1.30931 2.85334C1.19225 2.71953 1.10313 2.56366 1.0472 2.3949C0.991262 2.22614 0.969645 2.04789 0.983615 1.87065C0.997585 1.69341 1.04686 1.52076 1.12854 1.36284C1.21023 1.20493 1.32266 1.06495 1.45925 0.951128C1.59583 0.83731 1.75379 0.751957 1.92385 0.70009C2.0939 0.648223 2.27261 0.63089 2.44947 0.64911C2.62632 0.66733 2.79774 0.720735 2.95365 0.806184C3.10956 0.891633 3.2468 1.0074 3.35731 1.14667L8.99998 7.91734L14.6426 1.14667C14.869 0.875181 15.1939 0.704693 15.546 0.672689C15.898 0.640686 16.2484 0.749786 16.52 0.976006Z" fill="#787878"/>
</svg>
